<svg width="70" height="60" fill="none" xmlns="http://www.w3.org/2000/svg"><path d="M64.246 11.915h-8.687l-4.25-8.92C50.687 1.693 49.19.748 47.748.748H22.251c-1.443 0-2.94.945-3.56 2.247l-4.25 8.92H5.753A5.76 5.76 0 000 17.67v29.714a5.76 5.76 0 005.754 5.755h19.013c.266 0 .519-.055.75-.152 3.68 3.855 8.863 6.264 14.601 6.264 5.739 0 10.922-2.409 14.603-6.264.23.097.483.151.748.151h8.777A5.76 5.76 0 0070 47.385V17.67a5.761 5.761 0 00-5.754-5.755zm-42.11-7.23a.512.512 0 01.16-.101h25.409a.52.52 0 01.16.1l3.444 7.231H18.691l3.445-7.23zm17.982 50.73c-9.023 0-16.364-7.34-16.364-16.364 0-9.023 7.341-16.364 16.364-16.364s16.364 7.341 16.364 16.364-7.34 16.364-16.364 16.364zm26.046-8.03a1.92 1.92 0 01-1.918 1.918h-6.732a20.071 20.071 0 002.804-10.252c0-11.138-9.061-20.2-20.2-20.2-11.138 0-20.2 9.062-20.2 20.2 0 3.74 1.026 7.244 2.805 10.252H5.754a1.92 1.92 0 01-1.918-1.918V17.67a1.92 1.92 0 011.918-1.918h58.492a1.92 1.92 0 011.918 1.918v29.715z" fill="#BDBDBD"/><path d="M40.118 27.982c-6.103 0-11.069 4.966-11.069 11.07 0 6.103 4.966 11.068 11.069 11.068 6.103 0 11.069-4.965 11.069-11.069 0-6.103-4.965-11.069-11.069-11.069zm0 18.302c-3.988 0-7.233-3.245-7.233-7.233 0-3.988 3.245-7.233 7.233-7.233 3.988 0 7.233 3.245 7.233 7.233 0 3.988-3.245 7.233-7.233 7.233zM17.591 18.397H9.876a2.56 2.56 0 00-2.557 2.557v3.61a2.56 2.56 0 002.557 2.557h7.715a2.56 2.56 0 002.558-2.557v-3.61a2.56 2.56 0 00-2.558-2.557zm-.003 6.167H9.876v-3.61h7.715l-.003 3.61zm.003 1.279v-1.28 1.28z" fill="#BDBDBD"/></svg>