<svg width="69" height="62" fill="none" xmlns="http://www.w3.org/2000/svg"><path d="M68.047 27.892a1.996 1.996 0 00-1.96-.1l-13.528 6.75v-2.175a7.528 7.528 0 00-4.78-7.027 14.414 14.414 0 004.78-10.746c0-7.916-6.348-14.356-14.15-14.356-5.142 0-9.652 2.797-12.13 6.969C23.801 3.035 19.292.238 14.15.238 6.348.238 0 6.678 0 14.594c0 4.272 1.85 8.114 4.779 10.746A7.529 7.529 0 000 32.367v21.875c0 4.147 3.325 7.52 7.412 7.52h37.735c4.087 0 7.412-3.373 7.412-7.52v-2.175l13.527 6.75a1.996 1.996 0 001.96-.1 2.058 2.058 0 00.954-1.74V29.633c0-.709-.36-1.367-.953-1.741zM38.408 4.34c5.573 0 10.108 4.6 10.108 10.254S43.98 24.848 38.408 24.848s-10.107-4.6-10.107-10.254S32.835 4.34 38.408 4.34zm-9.892 20.508h-4.473a14.42 14.42 0 002.236-2.867 14.42 14.42 0 002.237 2.867zM4.043 14.594C4.043 8.94 8.577 4.34 14.15 4.34c5.574 0 10.108 4.6 10.108 10.254S19.724 24.848 14.15 24.848c-5.573 0-10.107-4.6-10.107-10.254zm44.473 39.648c0 1.885-1.512 3.418-3.37 3.418H7.413c-1.858 0-3.369-1.533-3.369-3.418V32.367c0-1.884 1.511-3.418 3.37-3.418h37.734c1.857 0 3.369 1.534 3.369 3.418v21.876zm16.441-.56l-12.398-6.185v-8.384l12.398-6.186v20.756z" fill="#BDBDBD"/><path d="M14.15 20.746c3.344 0 6.065-2.76 6.065-6.152 0-3.393-2.72-6.153-6.065-6.153-3.344 0-6.064 2.76-6.064 6.153 0 3.392 2.72 6.152 6.064 6.152zm0-8.203c1.115 0 2.022.92 2.022 2.05 0 1.132-.907 2.052-2.022 2.052-1.114 0-2.021-.92-2.021-2.051 0-1.131.907-2.051 2.021-2.051zm24.258 8.203c3.344 0 6.065-2.76 6.065-6.152 0-3.393-2.72-6.153-6.065-6.153-3.344 0-6.064 2.76-6.064 6.153 0 3.392 2.72 6.152 6.064 6.152zm0-8.203c1.115 0 2.022.92 2.022 2.05 0 1.132-.907 2.052-2.022 2.052-1.114 0-2.021-.92-2.021-2.051 0-1.131.907-2.051 2.021-2.051zm4.043 20.507H27.627c-1.116 0-2.021.919-2.021 2.052v12.304c0 1.133.905 2.051 2.021 2.051h14.824c1.117 0 2.022-.918 2.022-2.05V35.101c0-1.133-.905-2.051-2.022-2.051zM40.43 45.357H29.648v-8.204H40.43v8.203zm-20.889 4.1h-9.434c-1.116 0-2.021.918-2.021 2.05 0 1.133.905 2.052 2.021 2.052h9.434c1.116 0 2.021-.919 2.021-2.051 0-1.133-.905-2.051-2.021-2.051zm0-8.203h-9.434c-1.116 0-2.021.918-2.021 2.05 0 1.133.905 2.051 2.021 2.051h9.434c1.116 0 2.021-.918 2.021-2.05 0-1.133-.905-2.051-2.021-2.051z" fill="#BDBDBD"/></svg>