<svg width="24" height="18" fill="none" xmlns="http://www.w3.org/2000/svg"><path d="M22.735 14.564a.998.998 0 01.784.98v1.166c0 .25-.099.486-.277.662a.925.925 0 01-.655.27h-.01c-2.787-.028-5.036-.63-6.684-1.785-1.687-1.183-2.694-3.159-2.694-5.284V1.414c0-.78.634-1.414 1.414-1.414h7.49c.78 0 1.416.635 1.416 1.414v6.711c0 .78-.635 1.415-1.415 1.415H17.67v1.607c0 2.217 4.546 3.3 5.064 3.417zM17.62 8.075h4.433v-6.61h-7.39v9.107c0 1.65.774 3.176 2.07 4.086 1.299.91 3.087 1.416 5.32 1.506v-.256c-1.752-.44-5.848-1.786-5.848-4.761V9.49c0-.78.634-1.415 1.415-1.415zM1.414 0h7.49c.781 0 1.415.635 1.415 1.414v6.711c0 .78-.634 1.415-1.414 1.415H4.472v1.607c0 2.217 4.545 3.3 5.064 3.417a.998.998 0 01.783.98v1.166c0 .25-.098.486-.276.662a.926.926 0 01-.656.27h-.01c-2.786-.028-5.035-.629-6.683-1.785C1.007 14.674 0 12.698 0 10.573v-3.92a.732.732 0 111.465 0v3.92c0 1.649.774 3.176 2.07 4.085 1.299.91 3.086 1.417 5.32 1.506v-.256c-1.752-.439-5.848-1.785-5.848-4.761V9.49c0-.78.635-1.415 1.415-1.415h4.433v-6.61h-7.39v1.77a.732.732 0 11-1.465 0v-1.82C0 .634.634 0 1.414 0z" fill="#fff"/></svg>