<svg width="24" height="18" fill="none" xmlns="http://www.w3.org/2000/svg"><path d="M22.104 17.642h-7.49c-.78 0-1.415-.634-1.415-1.415v-6.71c0-.78.634-1.415 1.415-1.415h4.433V6.495c0-2.217-4.546-3.3-5.064-3.417a.998.998 0 01-.784-.98V.932c0-.25.098-.486.277-.662A.913.913 0 0114.14 0c2.786.029 5.035.63 6.683 1.785 1.688 1.183 2.695 3.159 2.695 5.285v9.157c0 .78-.635 1.415-1.415 1.415zm-.05-10.572c0-1.65-.774-3.176-2.07-4.085-1.3-.912-3.087-1.417-5.32-1.507v.256c1.752.44 5.847 1.786 5.847 4.761v1.657c0 .78-.634 1.415-1.414 1.415h-4.434v6.61h7.39V7.07zM.784 3.078A.998.998 0 010 2.098V.932C0 .682.098.446.277.27A.913.913 0 01.942 0C3.73.03 5.978.63 7.625 1.785 9.313 2.968 10.32 4.944 10.32 7.07v9.157c0 .78-.635 1.415-1.415 1.415H6.869a.733.733 0 010-1.465h1.986V7.07c0-1.65-.774-3.176-2.07-4.085-1.3-.911-3.087-1.417-5.32-1.507v.257c1.752.438 5.847 1.785 5.847 4.76v1.657c0 .78-.634 1.415-1.414 1.415H1.465v6.61H3.45a.732.732 0 110 1.465H1.414c-.78 0-1.414-.634-1.414-1.415v-6.71c0-.78.634-1.415 1.414-1.415h4.433V6.495c0-2.217-4.545-3.3-5.063-3.417z" fill="#fff"/></svg>